<?xml version="1.0" encoding="utf-8"?>
<!-- Generator: Adobe Illustrator 19.1.0, SVG Export Plug-In . SVG Version: 6.00 Build 0)  -->
<!DOCTYPE svg PUBLIC "-//W3C//DTD SVG 1.1//EN" "http://www.w3.org/Graphics/SVG/1.1/DTD/svg11.dtd">
<svg version="1.1" id="Ebene_1" xmlns="http://www.w3.org/2000/svg" xmlns:xlink="http://www.w3.org/1999/xlink" x="0px" y="0px"
	 viewBox="0 0 31 32" enable-background="new 0 0 31 32" xml:space="preserve">
<path d="M8.7,10.3C8.9,10.5,9,10.7,9,11v20c0,0.3-0.1,0.5-0.3,0.7S8.3,32,8,32H1c-0.3,0-0.5-0.1-0.7-0.3S0,31.3,0,31V11
	c0-0.3,0.1-0.5,0.3-0.7S0.7,10,1,10h7C8.3,10,8.5,10.1,8.7,10.3z M7,12H2v18h5V12z M19.7,16.2c0.2,0.2,0.3,0.4,0.3,0.7V31
	c0,0.3-0.1,0.5-0.3,0.7S19.3,32,19,32h-7c-0.3,0-0.5-0.1-0.7-0.3S11,31.3,11,31V16.9c0-0.3,0.1-0.5,0.3-0.7s0.4-0.3,0.7-0.3h7
	C19.3,15.9,19.5,16,19.7,16.2z M18,17.9h-5V30h5V17.9z M30.7,0.3C30.9,0.5,31,0.7,31,1v30c0,0.3-0.1,0.5-0.3,0.7S30.3,32,30,32h-7
	c-0.2,0-0.5-0.1-0.7-0.3C22.1,31.5,22,31.3,22,31V1c0-0.3,0.1-0.5,0.3-0.7C22.5,0.1,22.8,0,23,0h7C30.3,0,30.5,0.1,30.7,0.3z M29,2
	h-5v28h5V2z" style="fill:#fff;"/>
</svg>
