<svg id="Ebene_1" data-name="Ebene 1" xmlns="http://www.w3.org/2000/svg" viewBox="0 0 58.55 56.34"><defs><style>.cls-1{fill:#fff;}</style></defs><title>landtagswahlen</title><g id="r1EJcu"><path class="cls-1" d="M649.7,290.66l.54-.75c-.06,0-.12-.08-.13-.07a5.7,5.7,0,0,1-1.61.94l-1.54-.17.5-1-1.92-.44c.41-2.44,2.42-3.7,4.08-5.23,2.49-2.31,5-4.58,7.62-7-5.21-5.52-6.26-12.18-5.11-19.25,1.2-7.36,5.94-12.18,12.21-15.72l-1.26-4.52c1.05.33,2.14.34,2.6.88.93,1.11,2.45,1,3.37,2,.19.21.83,0,1.26,0,3.88-.37,7.8-.57,11.51.81,2.55,1,4.93,2.36,7.61,3.68,1.78-2.06,3.79-4.38,5.78-6.71.75-.88,1.49-1.78,2.16-2.72.85-1.19,1.67-1,2.93-.4a19.48,19.48,0,0,1,1.94,1.07c.65.42,1.26.91,1.86,1.35-1.41,2.68-5.11,6.73-5.79,6.69a12.07,12.07,0,0,1-1,1.75c-.93,1.15-1.89,2.28-2.93,3.33-.65.66-.59,1.14-.19,2,4.08,8.15,4,16.17-1.13,23.85a20.8,20.8,0,0,1-7.64,6.8c-.67.35-1,.74-.8,1.49a3.47,3.47,0,0,1,.07.83c0,1.15-.37,1.46-1.46,1.31l-2.9-.42c-.12,0-.3,0-.34-.06-.84-1.43-2.14-.71-3.26-.66-4.82.22-9.51-.18-13.82-2.66a1.23,1.23,0,0,0-1.12.12c-1.34,1.13-2.62,2.32-3.9,3.51a5,5,0,0,1-2.69,1.6,6.39,6.39,0,0,0-2.47,1.6c-1,.76-1.84,1.6-2.75,2.41Zm16.69-44.14c-5.82,2.67-8.86,7.33-10,13.32-1,5.26,1,9.74,4.23,14,3.82-3.65,7.49-7.14,11.1-10.69a1.88,1.88,0,0,0,.17-1.6c-1.45-4.22-3-8.42-4.49-12.62C667.16,248.15,666.77,247.37,666.39,246.52Zm16.9,30.9C691,273.92,695.65,262,690,253.9c-1.13,1.21-2.21,2.4-3.33,3.56-2,2.1-4.11,4.13-6.06,6.3a4.33,4.33,0,0,0-1,4.66,13.87,13.87,0,0,1,1,3.19C680.92,273.87,682.34,275.52,683.29,277.41ZM686,248.66c-4.48-3-9.1-4.79-14.68-3.8.78,1.71,1.35,3.3,2.18,4.72s.74,3.12,1.53,4.47a34.57,34.57,0,0,1,1.65,4.27Zm-7.8,30.75-3.61-9.6-8.52,8C670,279.62,673.85,280.58,678.18,279.41Z" transform="translate(-645.54 -234.53)"/></g></svg>