<?xml version="1.0" encoding="utf-8"?>
<!-- Generator: Adobe Illustrator 19.1.0, SVG Export Plug-In . SVG Version: 6.00 Build 0)  -->
<!DOCTYPE svg PUBLIC "-//W3C//DTD SVG 1.1//EN" "http://www.w3.org/Graphics/SVG/1.1/DTD/svg11.dtd">
<svg version="1.1" id="Ebene_1" xmlns="http://www.w3.org/2000/svg" xmlns:xlink="http://www.w3.org/1999/xlink" x="0px" y="0px"
	 viewBox="0 0 32 32" enable-background="new 0 0 32 32" xml:space="preserve">
<path d="M31.8,15.9c0,0.4-0.2,0.7-0.5,0.8l-15,8.1C16.1,25,16,25,15.8,25c-0.2,0-0.3,0-0.4-0.1L0.5,16.7C0.2,16.6,0,16.3,0,15.9
	c0-0.4,0.2-0.7,0.6-0.9l3.1-1.6l2.1,1.2l-2.7,1.3l12.7,6.9l12.9-6.9l-2.5-1.2l2.1-1.2l3,1.5C31.6,15.2,31.8,15.5,31.8,15.9z
	 M31.8,22.9c0,0.4-0.2,0.7-0.5,0.9l-15,8.1C16.1,32,16,32,15.8,32c-0.2,0-0.3,0-0.4-0.1L0.5,23.7C0.2,23.6,0,23.3,0,22.9
	c0-0.4,0.2-0.7,0.6-0.9l2.9-1.4l2.1,1.2l-2.5,1.1l12.7,6.9l12.9-6.9l-2.4-1.1l2.2-1.2l2.8,1.4C31.6,22.2,31.8,22.5,31.8,22.9z
	 M0.2,8.5c0-0.4,0.2-0.7,0.5-0.8l15-7.6C16,0,16.3,0,16.6,0.1l14.8,7.6C31.8,7.9,32,8.1,32,8.5c0,0.4-0.2,0.7-0.5,0.9l-15,8.1
	c-0.2,0.1-0.3,0.1-0.5,0.1c-0.2,0-0.3,0-0.5-0.1L0.7,9.4C0.3,9.2,0.1,8.9,0.2,8.5z M3.3,8.6L16,15.5l12.9-6.9L16.2,2.1L3.3,8.6z" style="fill:#fff;"/>
</svg>
