<?xml version="1.0" encoding="utf-8"?>
<!-- Generator: Adobe Illustrator 21.0.0, SVG Export Plug-In . SVG Version: 6.00 Build 0)  -->
<svg version="1.1" id="Ebene_1" xmlns="http://www.w3.org/2000/svg" xmlns:xlink="http://www.w3.org/1999/xlink" x="0px" y="0px"
	 viewBox="0 0 32 32" style="enable-background:new 0 0 32 32;" xml:space="preserve">
<style type="text/css">
	.st0{fill:#FFFFFF;}
</style>
<path class="st0" d="M6.6,17.1l-3.1,2.7c0,0,6.5,9.6,8.3,9.6c1.7,0,5.2-4.7,9-6.8c3.7-2.1,6.1-2.9,7.6-3.1c0-1.2,0-3.8,0-3.8
	s-7-0.4-15.9,8.1C12.1,23.4,6.6,17.1,6.6,17.1z"/>
<g>
	<path class="st0" d="M10.9,14.3H8.5l-0.9-2.5H3.2l-0.9,2.5H0L4.2,3.4h2.3L10.9,14.3z M6.8,10l-1.5-4l-1.5,4H6.8z"/>
	<path class="st0" d="M12,3.4h4.3c0.9,0,1.5,0,1.9,0.1c0.4,0.1,0.8,0.2,1.1,0.4c0.3,0.2,0.6,0.5,0.8,0.9c0.2,0.4,0.3,0.8,0.3,1.3
		c0,0.5-0.1,1-0.4,1.4s-0.6,0.7-1.1,1c0.7,0.2,1.2,0.5,1.5,1c0.4,0.5,0.5,1,0.5,1.6c0,0.5-0.1,1-0.3,1.4c-0.2,0.5-0.5,0.8-0.9,1.1
		c-0.4,0.3-0.9,0.4-1.5,0.5c-0.4,0-1.2,0.1-2.6,0.1H12V3.4z M14.2,5.2v2.5h1.4c0.9,0,1.4,0,1.6,0c0.4,0,0.7-0.2,0.9-0.4
		c0.2-0.2,0.3-0.5,0.3-0.8c0-0.3-0.1-0.6-0.3-0.8c-0.2-0.2-0.5-0.3-0.8-0.4c-0.2,0-0.8,0-1.9,0H14.2z M14.2,9.5v2.9h2
		c0.8,0,1.3,0,1.5-0.1c0.3-0.1,0.6-0.2,0.8-0.4c0.2-0.2,0.3-0.5,0.3-0.9c0-0.3-0.1-0.6-0.2-0.8c-0.2-0.2-0.4-0.4-0.7-0.5
		C17.6,9.6,17,9.5,16,9.5H14.2z"/>
	<path class="st0" d="M29.9,10.3l2.1,0.7c-0.3,1.2-0.9,2.1-1.6,2.6c-0.8,0.6-1.7,0.9-2.9,0.9c-1.4,0-2.6-0.5-3.5-1.5
		c-0.9-1-1.4-2.3-1.4-4c0-1.8,0.5-3.2,1.4-4.2c0.9-1,2.2-1.5,3.7-1.5c1.3,0,2.4,0.4,3.2,1.2c0.5,0.5,0.9,1.1,1.1,2l-2.2,0.5
		c-0.1-0.6-0.4-1-0.8-1.3s-0.9-0.5-1.5-0.5c-0.8,0-1.5,0.3-2,0.9c-0.5,0.6-0.8,1.5-0.8,2.8c0,1.4,0.2,2.3,0.7,2.9
		c0.5,0.6,1.1,0.9,1.9,0.9c0.6,0,1.1-0.2,1.5-0.6C29.4,11.6,29.7,11.1,29.9,10.3z"/>
</g>
</svg>
