<?xml version="1.0" encoding="utf-8"?>
<!-- Generator: Adobe Illustrator 19.1.0, SVG Export Plug-In . SVG Version: 6.00 Build 0)  -->
<!DOCTYPE svg PUBLIC "-//W3C//DTD SVG 1.1//EN" "http://www.w3.org/Graphics/SVG/1.1/DTD/svg11.dtd">
<svg version="1.1" id="Ebene_1" xmlns="http://www.w3.org/2000/svg" xmlns:xlink="http://www.w3.org/1999/xlink" x="0px" y="0px"
	 viewBox="0 0 32 32" enable-background="new 0 0 32 32" xml:space="preserve">
<path d="M32,16c0,4.4-1.6,8.2-4.7,11.3S20.4,32,16,32c-4.4,0-8.2-1.6-11.3-4.7S0,20.4,0,16c0-4.4,1.6-8.2,4.7-11.3S11.6,0,16,0
	c4.4,0,8.2,1.6,11.3,4.7S32,11.6,32,16z M30,16c0-3.9-1.4-7.2-4.1-9.9C23.2,3.4,19.9,2,16,2S8.8,3.4,6.1,6.1C3.4,8.8,2,12.1,2,16
	s1.4,7.2,4.1,9.9c2.7,2.8,6,4.1,9.9,4.1s7.2-1.4,9.9-4.1C28.6,23.2,30,19.9,30,16z M19.7,8.2c0.9,0.8,1.3,1.9,1.3,3.4
	c0,1-0.3,2-0.9,2.9c-0.6,0.9-1.4,1.8-2.3,2.7c-0.4,0.5-0.7,0.9-0.8,1.2c-0.1,0.3-0.2,0.9-0.2,1.6h-2.4c0-1.2,0.1-2,0.3-2.4
	c0.2-0.5,0.7-1.1,1.5-1.8c0.8-1,1.4-1.7,1.8-2.2c0.3-0.5,0.5-1.1,0.5-1.9c0-0.9-0.2-1.5-0.7-2C17.5,9.2,16.8,9,16,9
	c-0.8,0-1.4,0.2-1.9,0.6c-0.5,0.4-0.8,1.2-0.8,2.3H11l-0.1-0.1c0-1.7,0.5-2.9,1.4-3.7C13.3,7.4,14.5,7,16,7
	C17.6,7,18.8,7.4,19.7,8.2z M14.5,22.5h2.6V25h-2.6V22.5z"/>
</svg>
