<?xml version="1.0" encoding="utf-8"?>
<!-- Generator: Adobe Illustrator 21.0.0, SVG Export Plug-In . SVG Version: 6.00 Build 0)  -->
<svg version="1.1" id="Ebene_1" xmlns="http://www.w3.org/2000/svg" xmlns:xlink="http://www.w3.org/1999/xlink" x="0px" y="0px"
	 viewBox="0 0 200 94" style="enable-background:new 0 0 200 94;" xml:space="preserve">
<style type="text/css">
	.st0{fill:#009EE0;}
	.st1{fill:#E2001A;}
	.st2{fill:none;stroke:#ED1C24;stroke-width:0.6806;stroke-miterlimit:10;}
	.st3{fill:#FFFFFF;}
	.st4{fill:none;stroke:#FFFFFF;stroke-width:0.6806;stroke-miterlimit:10;}
	.st5{fill:none;stroke:#FFFFFF;stroke-width:2.7224;stroke-miterlimit:10;}
</style>
<g id="g3369">
	<path id="path2438" class="st0" d="M-0.2,10.7h184.8v77.3H-0.2V10.7z"/>
	<path id="path2440" class="st1" d="M37.4,82.2c5.3,11.6,24.4,14.3,52.1,5.7c13.4-4.1,42.1-15,58.7-26.7
		c21.1-14.9,30.6-22.9,33.2-26.3l10.9,13.7l7.5-43.8l-45-3.9L165.6,15c0,0-14.6,14.7-38.2,25c-18,7.9-46.7,17.4-54.7,13.3
		c-13.4-6.8,5.4-24.8,5.4-24.8c-22.4,5.1-38.8,15.6-42.5,36.4C34.7,70.1,35,76.8,37.4,82.2"/>
	<path id="path2442" class="st2" d="M37.4,82.2c5.3,11.6,24.4,14.3,52.1,5.7c13.4-4.1,42.1-15,58.7-26.7
		c21.1-14.9,30.6-22.9,33.2-26.3l10.9,13.7l7.5-43.8l-45-3.9L165.6,15c0,0-14.6,14.7-38.2,25c-18,7.9-46.7,17.4-54.7,13.3
		c-13.4-6.8,5.4-24.8,5.4-24.8c-22.4,5.1-38.8,15.6-42.5,36.4C34.7,70.1,35,76.8,37.4,82.2z"/>
	<path id="path2446" class="st3" d="M124,20.8v4.7h-1.8V30h1.7v10.9h5.4V29.9h3.1v-4.5h-3.1v-4.6L124,20.8"/>
	<path id="path2448" class="st3" d="M40.8,20.8v4.7h-1.8V30h1.7v10.9h5.4V29.9h3.1v-4.5h-3.1v-4.6L40.8,20.8"/>
	<path id="path2450" class="st3" d="M108.9,71.2v2.6h-1v2.5h1v6h3v-6h1.7v-2.5h-1.7v-2.5L108.9,71.2"/>
	<path id="path2452" class="st3" d="M75.9,59.3V60h-0.7v1.7h0.7v4.2H78v-4.2l1.5,0V60L78,60l0-1.3c0-0.6,0.4-0.7,0.6-0.8
		c0.6-0.1,0.9,0.3,0.9,0.3l0-1.8C77,56,75.9,57.5,75.9,59.3"/>
	<path id="path2454" class="st4" d="M75.9,59.3V60h-0.7v1.7h0.7v4.2H78v-4.2l1.5,0V60L78,60l0-1.3c0-0.6,0.4-0.7,0.6-0.8
		c0.6-0.1,0.9,0.3,0.9,0.3l0-1.8C77,56,75.9,57.5,75.9,59.3z"/>
	<path id="path2456" class="st3" d="M134.4,25.5l0,15.3h5.4V25.4L134.4,25.5"/>
	<path id="path2458" class="st3" d="M139.8,19.5c0,1.5-1.2,2.7-2.7,2.7c-1.5,0-2.7-1.2-2.7-2.7c0-1.5,1.2-2.7,2.7-2.7
		C138.5,16.7,139.8,18,139.8,19.5"/>
	<path id="path2460" class="st5" d="M139.8,19.5c0,1.5-1.2,2.7-2.7,2.7c-1.5,0-2.7-1.2-2.7-2.7c0-1.5,1.2-2.7,2.7-2.7
		C138.5,16.7,139.8,18,139.8,19.5z"/>
	<path id="path2462" class="st3" d="M141.2,25.4l8,15.3h3.6l8-15.4h-6.2l-3.6,7.8l-3.7-7.8L141.2,25.4"/>
	<path id="path2464" class="st3" d="M31.3,15.9h5.5v24.9h-5.5V15.9z"/>
	<path id="path2466" class="st3" d="M141.9,68.5h3v13.7h-3V68.5z"/>
	<path id="path2468" class="st3" d="M15.3,32.4l2.4-7.2l2.4,7.2H15.3z M21,18.2l-6.4,0L5.8,40.8h6.3l1.6-3.9h8l1.5,3.9h6.3L21,18.2"
		/>
	<path id="path2470" class="st3" d="M69.5,25.4l0,15.3H75c0,0,0-2.9,0-5.8c-0.2-7.3,6.1-4.5,6.1-4.5v-5.3C76,24.9,74.9,28,74.9,28
		v-2.6H69.5"/>
	<path id="path2472" class="st3" d="M87.8,60l0,5.9h2.1c0,0,0-1.1,0-2.2c-0.1-2.8,2.3-1.7,2.3-1.7v-2c-1.9-0.1-2.3,1.1-2.3,1.1v-1
		H87.8"/>
	<path id="path2474" class="st3" d="M166.6,30.9c0,0,0.4-2.4,3.2-2.4s3.1,2.4,3.1,2.4H166.6z M169.7,24.9c-8.9,0-8.6,8.1-8.6,8.1
		c0,1.8,0.5,8.4,8.7,8.4c7.3,0,8-5.2,8-5.2h-5.3c0,0-0.6,1.4-2.8,1.4c-2.2,0-3.2-1.2-3.2-3.5l11.5,0C178,34,178.6,24.9,169.7,24.9"
		/>
	<path id="path2476" class="st3" d="M90.3,76.7c0,0,0.2-1.3,1.8-1.3c1.5,0,1.7,1.3,1.7,1.3H90.3z M92,73.4c-4.9,0-4.7,4.5-4.7,4.5
		c0,1,0.3,4.6,4.8,4.6c4,0,4.4-2.9,4.4-2.9h-2.9c0,0-0.3,0.8-1.5,0.8c-1.2,0-1.8-0.7-1.8-2l6.3,0C96.6,78.4,96.9,73.4,92,73.4"/>
	<path id="path2478" class="st3" d="M55.6,30.9c0,0,0.4-2.4,3.2-2.4c2.8,0,3.1,2.4,3.1,2.4H55.6z M58.6,24.9C49.7,24.9,50,33,50,33
		c0,1.8,0.5,8.4,8.7,8.4c7.3,0,8-5.2,8-5.2h-5.3c0,0-0.6,1.4-2.8,1.4c-2.2,0-3.2-1.2-3.2-3.5L67,34C67,34,67.6,24.9,58.6,24.9"/>
	<path id="path2480" class="st3" d="M83.2,25.4v15.3h5.4v-8.5c0,0,0.1-3.2,2.8-3.1c2.7,0,2.5,3.1,2.5,3.1v8.5l5.5,0c0,0,0-7.3,0-8.4
		c0-1.1,0.4-7.4-5.4-7.4c-4,0-5.3,2.5-5.3,2.5l0-2H83.2"/>
	<path id="path2482" class="st3" d="M158,73.8v8.4h3v-4.7c0,0,0-1.7,1.5-1.7c1.5,0,1.4,1.7,1.4,1.7v4.7l3,0c0,0,0-4,0-4.6
		c0-0.6,0.2-4.1-3-4.1c-2.2,0-2.9,1.4-2.9,1.4l0-1.1H158"/>
	<path id="path2484" class="st3" d="M131.1,68.7v13.5h3v-4.7c0,0,0-1.7,1.5-1.7c1.5,0,1.4,1.7,1.4,1.7v4.7l3,0c0,0,0-4,0-4.6
		c0-0.6,0.2-4.1-3-4.1c-2.2,0-2.9,1.4-2.9,1.4l0-6.2H131.1"/>
	<path id="path2486" class="st3" d="M111,36.8c-2,0-3.6-1.6-3.6-3.6c0-2,1.6-3.6,3.6-3.6c2,0,3.6,1.6,3.6,3.6
		C114.6,35.2,113,36.8,111,36.8z M114.4,25.4V27c0,0-1.4-2.1-4.7-2.1c-4.1,0-7.8,2.9-7.8,8.3c0.2,6.6,5.5,8.1,7.7,8.1
		c3.3,0,4.8-2.2,4.8-2.2v1.7h5.5V25.4H114.4"/>
	<path id="path2488" class="st3" d="M151.2,80c-1.1,0-2-0.9-2-2c0-1.1,0.9-2,2-2c1.1,0,2,0.9,2,2C153.2,79.1,152.3,80,151.2,80z
		 M153.1,73.7v0.9c0,0-0.8-1.1-2.6-1.1c-2.3,0-4.3,1.6-4.3,4.6c0.1,3.6,3,4.5,4.2,4.5c1.8,0,2.6-1.2,2.6-1.2v1h3v-8.5H153.1"/>
	<path id="path2490" class="st3" d="M173.3,80c-1.1,0-2-0.9-2-2c0-1.1,0.9-2,2-2c1.1,0,2,0.9,2,2C175.3,79.1,174.4,80,173.3,80z
		 M175.2,68.6v6c0,0-0.8-1.1-2.6-1.1c-2.3,0-4.3,1.6-4.3,4.6c0.1,3.6,3,4.5,4.2,4.5c1.8,0,2.6-1.2,2.6-1.2v1h3V68.6H175.2"/>
	<path id="path2492" class="st3" d="M78.9,79.5v-6.8c0,0,4.2-0.5,4.2,3.5C83.2,80,78.9,79.5,78.9,79.5z M79.8,70c-0.1,0-4.1,0-4.1,0
		v12.2c0,0,2,0,4.1,0c2.4,0,6.7-1,6.6-6.1C86.4,71.6,82.6,69.9,79.8,70"/>
	<path id="path2494" class="st3" d="M98,73.8h2.8l0,4.8c0,1.8,3,1.8,3,0v-4.9l2.9,0V79c0,0,0.4,3.4-4.4,3.4S98,78.9,98,78.9V73.8"/>
	<path id="path2496" class="st3" d="M80.2,60h2l0,3.4c0,1.2,2.1,1.2,2.1,0V60l2,0v3.7c0,0,0.3,2.4-3,2.4c-3.4,0-3.1-2.4-3.1-2.4V60"
		/>
	<path id="path2498" class="st3" d="M120.3,75.8c-0.4-0.3-2.5-0.8-2.6,0.2c-0.1,1.3,4,0.1,3.8,3.3c-0.1,2.3-1.9,3-3.8,3
		c-1.2,0-2.8-0.4-3.5-1l1-2.1c0.5,0.4,3.1,1.5,3.4,0.3c0.2-1.3-3.9-0.2-3.8-3.2c0.2-4.2,5.4-3,6.4-2.4L120.3,75.8"/>
	<path id="path2500" class="st3" d="M129.2,74c-1.5-1-6.5-0.6-6.6,3.9c-0.1,5.1,5.6,4.8,6.6,4.1l0-2.5c0,0-1.4,1-2.7,0.3
		c-1.4-0.8-1-2.9-0.1-3.5c1.6-1,2.8,0.3,2.8,0.3L129.2,74"/>
	<path id="path2502" class="st3" d="M82.8,57.8c0,0.6-0.5,1-1,1c-0.6,0-1-0.5-1-1s0.5-1,1-1C82.3,56.8,82.8,57.3,82.8,57.8"/>
	<path id="path2504" class="st4" d="M82.8,57.8c0,0.6-0.5,1-1,1c-0.6,0-1-0.5-1-1s0.5-1,1-1C82.3,56.8,82.8,57.3,82.8,57.8z"/>
	<path id="path2506" class="st3" d="M85.7,57.8c0,0.6-0.5,1-1,1c-0.6,0-1-0.5-1-1s0.5-1,1-1C85.2,56.8,85.7,57.3,85.7,57.8"/>
	<path id="path2508" class="st4" d="M85.7,57.8c0,0.6-0.5,1-1,1c-0.6,0-1-0.5-1-1s0.5-1,1-1C85.2,56.8,85.7,57.3,85.7,57.8z"/>
</g>
</svg>
