<?xml version="1.0" encoding="utf-8"?>
<!-- Generator: Adobe Illustrator 21.0.0, SVG Export Plug-In . SVG Version: 6.00 Build 0)  -->
<svg version="1.1" id="Ebene_1" xmlns="http://www.w3.org/2000/svg" xmlns:xlink="http://www.w3.org/1999/xlink" x="0px" y="0px"
	 viewBox="0 0 200 68" style="enable-background:new 0 0 200 68;" xml:space="preserve">
<style type="text/css">
	.st0{fill:#ECECEC;}
	.st1{fill-rule:evenodd;clip-rule:evenodd;fill:#E2000B;}
	.st2{fill:#E2000B;}
</style>
<rect y="1.2" class="st0" width="200" height="66.7"/>
<g>
	<path class="st1" d="M61.3,35.4c2.5,0,4,0.4,5.2,1.3c1.9,1.6,2.7,4.5,2.2,7.8c-0.7,4.8-2.8,9.1-9.5,9.1h-5.9L56,35.4H61.3
		L61.3,35.4z M64.8,28.5c10.3,0,16,6,14.9,16c-1.1,9.8-6.4,16.2-18.7,16.2H41.3l4.9-32.2H64.8L64.8,28.5z"/>
	<path class="st2" d="M97,28.5l-2.8,18.1c-0.6,4,1.6,7.1,5.9,7.1c3.7,0,6.8-2.5,7.5-7.1l2.8-18.1h10.9l-2.6,17
		c-1.4,9.4-6.7,15.8-19.3,15.8c-8.4,0-13.1-3-15.1-7c-1.5-2.9-1.6-6.4-1.1-9.3l2.5-16.6H97L97,28.5z"/>
	<path class="st2" d="M38.4,52.2c-1.6,0.5-5.3,0.9-9,0.9c-8.3,0-11.2-3.9-10.9-8.6c0.3-5.2,4.8-8.8,13.5-8.8c3.5,0,7.2,0.9,8.1,1.2
		l1.2-7.6C39.6,28.9,35,28,28.7,28C13.4,28,8.1,36.5,7.1,42.7c-1.4,8.8,4.2,18.6,19,18.6c4.7,0,9.6-0.7,11.1-1.4L38.4,52.2
		L38.4,52.2z"/>
</g>
</svg>
