<?xml version="1.0" encoding="utf-8"?>
<!-- Generator: Adobe Illustrator 21.0.0, SVG Export Plug-In . SVG Version: 6.00 Build 0)  -->
<svg version="1.1" id="Ebene_1" xmlns="http://www.w3.org/2000/svg" xmlns:xlink="http://www.w3.org/1999/xlink" x="0px" y="0px"
	 viewBox="0 0 200 112" style="enable-background:new 0 0 200 112;" xml:space="preserve">
<style type="text/css">
	.st0{fill:#FFEC00;}
	.st1{fill:none;}
	.st2{fill:#009DE2;}
	.st3{fill:#E4007D;}
	.st4{fill:#FFFFFF;}
</style>
<rect y="0" class="st0" width="200" height="112"/>
<rect y="0" class="st1" width="200" height="112"/>
<g>
	<g>
		<path class="st2" d="M56.2,37C56,37.8,55.4,39,53.5,39c-0.8,0-1.7-0.3-2.3-1.4c-0.5-1-0.5-2.3-0.5-2.9H60c0-1.1,0-4-1.7-5.8
			c-1.2-1.3-3-1.9-4.9-1.9c-1.5,0-3.2,0.3-4.7,1.8c-0.9,0.9-2,2.4-2,5.4c0,4.9,2.4,7.3,6.8,7.3c0.9,0,3.6,0,5.3-2.1
			c0.7-0.8,1-1.7,1.1-2.3L56.2,37z M50.8,32.5c0.1-0.6,0.1-1.3,0.8-2c0.5-0.6,1.1-0.9,2-0.9c2.3,0,2.7,2.2,2.7,2.9H50.8z"/>
		<path class="st2" d="M49.6,60.1C49.5,60.8,48.9,62,47,62c-0.8,0-1.7-0.3-2.3-1.4c-0.5-1-0.5-2.3-0.5-2.9h9.4c0-1.1,0-4-1.7-5.8
			c-1.2-1.3-3-1.9-4.9-1.9c-1.5,0-3.2,0.3-4.7,1.8c-0.9,0.9-2,2.4-2,5.4c0,4.9,2.4,7.3,6.8,7.3c0.9,0,3.6,0,5.3-2.1
			c0.7-0.8,1-1.7,1.1-2.3L49.6,60.1z M44.3,55.5c0.1-0.6,0.1-1.3,0.8-2c0.5-0.6,1.1-0.9,2-0.9c2.3,0,2.7,2.2,2.7,2.9H44.3z"/>
		<path class="st2" d="M157,60.1c-0.1,0.7-0.7,1.9-2.7,1.9c-0.8,0-1.7-0.3-2.3-1.4c-0.5-1-0.5-2.3-0.5-2.9h9.4c0-1.1,0-4-1.7-5.8
			c-1.2-1.3-3-1.9-4.9-1.9c-1.5,0-3.2,0.3-4.7,1.8c-0.9,0.9-2,2.4-2,5.4c0,4.9,2.4,7.3,6.8,7.3c0.9,0,3.6,0,5.3-2.1
			c0.7-0.8,1-1.7,1.1-2.3L157,60.1z M151.6,55.5c0.1-0.6,0.1-1.3,0.8-2c0.5-0.6,1.1-0.9,2-0.9c2.3,0,2.7,2.2,2.7,2.9H151.6z"/>
		<path class="st2" d="M79,37c-0.1,0.7-0.7,1.9-2.7,1.9c-0.8,0-1.7-0.3-2.3-1.4c-0.5-1-0.5-2.3-0.5-2.9h9.4c0-1.1,0-4-1.7-5.8
			c-1.2-1.3-3-1.9-4.9-1.9c-1.5,0-3.2,0.3-4.7,1.8c-0.9,0.9-2,2.4-2,5.4c0,4.9,2.4,7.3,6.8,7.3c0.9,0,3.6,0,5.3-2.1
			c0.7-0.8,1-1.7,1.1-2.3L79,37z M73.7,32.5c0.1-0.6,0.1-1.3,0.8-2c0.5-0.6,1.1-0.9,2-0.9c2.3,0,2.7,2.2,2.7,2.9H73.7z"/>
		<path class="st2" d="M38.6,54.6c0-5.8-3.1-8.9-8.4-8.9h-8.6v2.7h2v13.1h-2v2.7h8.9C35.5,64.2,38.6,60.3,38.6,54.6 M34.5,54.7
			c0,5.1-1.8,6.8-4.7,6.8h-2.2V48.4h2.2C32.7,48.4,34.5,49.9,34.5,54.7"/>
		<path class="st2" d="M73,64.2h6.6v-2.7h-1.6v-6.1c0-3.3-1.5-5.4-4.8-5.4c-2.4,0-4,1.2-4.6,3.1h-0.1c-0.4-2.1-1.8-3.1-4.1-3.1
			c-2.3,0-4,1.1-4.8,3.1h-0.1c0.2-1,0.2-1.9,0.2-2.8h-5.4v2.7h1.8v8.4h-1.5v2.7h6.8v-2.7H60v-4.6c0-2.1,1-3.7,2.9-3.7
			c1.4,0,2.4,0.7,2.4,2.6v5.7H64v2.7h6.6v-2.7H69v-4.6c0-2.2,1.1-3.7,2.9-3.7c1.4,0,2.4,0.7,2.4,2.6v5.7H73V64.2z"/>
		<path class="st2" d="M94.7,57.4c0-4.8-2.4-7.4-7.1-7.4c-4.5,0-7.1,3.4-7.1,7.4c0,4.7,2.7,7.1,7.1,7.1
			C92.1,64.5,94.7,61.6,94.7,57.4 M90.7,57.5c0,2.5-0.8,4-3.1,4c-2.3,0-3.1-1.5-3.1-4c0-2.5,0.8-4.4,3.1-4.4
			C89.9,53.1,90.7,54.6,90.7,57.5"/>
		<path class="st2" d="M95.8,64.2h6.5v-2.7H101v-4.3l3,3.3c0.4,0.4,0.8,0.7,1.2,1v0.1h-1.5v2.7h7.3v-2.7h-1.5l-4.6-5l4.3-3.4h1.2
			v-2.7h-7v2.7h1.9v0.1c-0.2,0.1-0.4,0.2-0.6,0.3l-3.7,2.8V43.9h-5.8v2.7h2.1v14.9h-1.5V64.2z"/>
		<path class="st2" d="M114.3,61.5h-1.5v2.7h7v-2.7H118V57c0-2.3,1.4-3.6,3.4-3.6c0.4,0,0.8,0.1,1.2,0.1l0.2-3.3
			c-0.4-0.1-0.8-0.2-1.2-0.2c-2.1,0-3.4,1.2-4,3.5h-0.1c0.2-1.3,0.2-2.2,0.2-3.2h-5.4v2.7h1.8V61.5z"/>
		<path class="st2" d="M137.2,61.5h-1.6c0.1-2,0.1-3.9,0.1-6.1c0-4-2.2-5.3-5.9-5.3c-2.5,0-4.6,0.9-5.5,1.4V55h3.2v-1.9
			c0.6-0.2,1.8-0.4,2.3-0.4c1.7,0,2.4,0.6,2.4,2.6v0.7c-2.7,0-4.4,0.1-5.8,0.6c-1.5,0.5-2.8,1.8-2.8,3.8c0,2.2,1.5,4,4.6,4
			c2.3,0,3.4-1,4.3-3.1h0.1c-0.1,0.5-0.2,1-0.2,1.9v0.8h4.7V61.5z M132.2,58.3c0,2.5-1.3,3.5-2.8,3.5c-1.5,0-2-0.8-2-1.7
			c0-1.2,0.8-1.8,3.8-1.8H132.2z"/>
		<path class="st2" d="M139.2,50.4h-1.9v2.7h1.9v7.7c0,2.4,1.5,3.7,4.2,3.7c0.9,0,1.9-0.2,3.2-0.7l0-2.6c-0.7,0.3-1.2,0.4-1.7,0.4
			c-1.5,0-2-0.5-2-2.4v-6.2h3.1v-2.7h-3.1v-3.1l-3.7,0.2V50.4z"/>
		<path class="st2" d="M163.8,61.5h-1.3v2.7h6.6v-2.7h-1.6v-4.6c0-2.1,1-3.7,3.2-3.7c1.4,0,2.4,0.7,2.4,2.6v5.7h-1.5v2.7h6.8v-2.7
			h-1.6v-6.1c0-3.3-1.5-5.4-4.8-5.4c-2.4,0-4.1,1.3-4.8,3.2h-0.1c0.2-1,0.2-1.9,0.2-2.9H162v2.7h1.8V61.5z"/>
	</g>
	<polygon class="st2" points="21.6,22.5 21.6,25.2 23.6,25.2 23.6,38.5 21.9,38.5 21.9,41.2 29.6,41.2 29.6,38.5 27.5,38.5 
		27.5,33.3 33.1,33.3 33.1,30.5 27.5,30.5 27.5,25.2 31.8,25.2 31.8,26.4 35,26.4 35,22.5 	"/>
	<g>
		<path class="st2" d="M37.4,38.5h-1.5v2.7h7v-2.7h-1.7V34c0-2.3,1.4-3.6,3.4-3.6c0.4,0,0.8,0.1,1.2,0.1l0.2-3.3
			c-0.4-0.1-0.8-0.2-1.2-0.2c-2.1,0-3.4,1.2-4,3.5h-0.1c0.2-1.3,0.2-2.2,0.2-3.2h-5.4V30h1.8V38.5z"/>
	</g>
	<polygon class="st2" points="63.2,38.5 61.7,38.5 61.7,41.2 68.5,41.2 68.5,38.5 66.9,38.5 66.9,27.3 61.4,27.3 61.4,30 63.2,30 	
		"/>
	<rect x="63" y="21.5" class="st2" width="3.7" height="3.7"/>
</g>
<rect x="83" y="68.8" class="st3" width="95.4" height="28.6"/>
<g>
	<g>
		<path class="st4" d="M160.6,76.2h-1.9v-2.9h8.1c4.7,0,7.2,2,7.2,5.8c0,3.7-2.6,6.3-6.5,6.3h-2.8v4.7h1.9V93h-8v-2.9h1.9V76.2z
			 M166.9,82.5c2.1,0,3.1-1.2,3.1-3.2c0-2-1.2-3.1-3.2-3.1h-2.2v6.4H166.9z"/>
		<path class="st4" d="M155.2,82.7c0-6.2-3.3-9.4-8.9-9.4h-9.2v2.9h2.1v13.9h-2.1V93h9.4C151.9,93,155.2,88.8,155.2,82.7
			 M150.8,82.8c0,5.4-1.9,7.3-5,7.3h-2.4V76.2h2.3C148.9,76.2,150.8,77.8,150.8,82.8"/>
	</g>
	<polygon class="st4" points="129.7,77.5 133,77.5 133,73.3 118.9,73.3 118.9,76.1 121,76.1 121,90.1 119.2,90.1 119.2,93 127.3,93 
		127.3,90.1 125.1,90.1 125.1,84.7 131,84.7 131,81.7 125.1,81.7 125.1,76.1 129.7,76.1 	"/>
</g>
</svg>
