<?xml version="1.0" encoding="utf-8"?>
<!-- Generator: Adobe Illustrator 21.0.0, SVG Export Plug-In . SVG Version: 6.00 Build 0)  -->
<svg version="1.1" id="Ebene_1" xmlns="http://www.w3.org/2000/svg" xmlns:xlink="http://www.w3.org/1999/xlink" x="0px" y="0px"
	 viewBox="0 0 200 59.6" style="enable-background:new 0 0 200 59.6;" xml:space="preserve">
<style type="text/css">
	.st0{fill:#FFFFFF;}
	.st1{fill-rule:evenodd;clip-rule:evenodd;fill:#181716;}
	.st2{fill:#E3000B;}
</style>
<g>
	<polygon class="st0" points="0,0 200,0 200,59.6 0,59.6 0,0 	"/>
	<path class="st1" d="M182.8,47c2.8,0,5.5-2.2,6-5.1c0.5-3-1.6-5.2-4.5-5.2c-2.7,0-5.3,2.3-5.8,5.1C178,44.7,179.9,47,182.8,47
		L182.8,47z M157.8,46.5h16.2l1.2-8h-7.5l0.8-5.2h6.7l1.2-8h-6.7l0.7-4.7h7.5l1.2-8H163L157.8,46.5L157.8,46.5z M156.2,46.5L151,29
		l9.5-16.4h-9.2l-7,14.4l2.1-14.4h-8.7l-5.1,33.9h8.7l2.3-15.5l3.1,15.5H156.2L156.2,46.5z M106.3,46.5h8.4l1.5-9.9
		c0.5-3.2,0.6-6.3,0.8-9.5l3.7,19.5h8.4l5.1-33.9h-8.4l-1.3,8.6c-0.6,3.9-0.5,7.8-0.8,11.7l-4-20.3h-8.3L106.3,46.5L106.3,46.5z
		 M90.9,46.5l1.2-8h-6.6l3.9-25.9h-8.7l-5.1,33.9H90.9L90.9,46.5z M49.9,46.5h16.2l1.2-8h-7.5l0.8-5.2h6.7l1.2-8h-6.7l0.7-4.7H70
		l1.2-8H55L49.9,46.5L49.9,46.5z M46.4,46.5l5.1-33.9h-8.7l-5.1,33.9H46.4L46.4,46.5z M25.3,21.1c4,0,3.9,5.1,3.3,8.8
		c-0.5,3.2-2,8.4-5.9,8.4L25.3,21.1L25.3,21.1z M12.7,46.5h7.6c5.3,0,14.9-1.4,17.3-17.1c1.5-10.2-2.8-16.8-12.8-16.8h-7L12.7,46.5
		L12.7,46.5z M102.8,46.5l4.3-27.7h-8.7L94,46.5H102.8L102.8,46.5z"/>
	<polygon class="st2" points="108.8,7.5 92,12.6 107.3,17.1 108.8,7.5 	"/>
</g>
</svg>
